<svg width="32" height="18" viewBox="0 0 32 18" fill="none" xmlns="http://www.w3.org/2000/svg">
<path d="M30 6.00001H26.4137L21 0.58626C20.815 0.399735 20.5947 0.251852 20.352 0.151209C20.1093 0.0505665 19.849 -0.000829299 19.5863 1.01186e-05H5.535C5.20649 0.000618348 4.88319 0.0821371 4.59367 0.237362C4.30415 0.392588 4.05732 0.61674 3.875 0.89001L0.1675 6.44501C0.0585648 6.60964 0.000326072 6.80261 0 7.00001L0 13C0 13.5304 0.210714 14.0392 0.585786 14.4142C0.960859 14.7893 1.46957 15 2 15H4.125C4.3453 15.8604 4.8457 16.623 5.54731 17.1676C6.24892 17.7122 7.11183 18.0079 8 18.0079C8.88817 18.0079 9.75108 17.7122 10.4527 17.1676C11.1543 16.623 11.6547 15.8604 11.875 15H20.125C20.3453 15.8604 20.8457 16.623 21.5473 17.1676C22.2489 17.7122 23.1118 18.0079 24 18.0079C24.8882 18.0079 25.7511 17.7122 26.4527 17.1676C27.1543 16.623 27.6547 15.8604 27.875 15H30C30.5304 15 31.0391 14.7893 31.4142 14.4142C31.7893 14.0392 32 13.5304 32 13V8.00001C32 7.46958 31.7893 6.96087 31.4142 6.5858C31.0391 6.21072 30.5304 6.00001 30 6.00001ZM5.535 2.00001H19.5863L23.5863 6.00001H2.875L5.535 2.00001ZM8 16C7.60444 16 7.21776 15.8827 6.88886 15.6629C6.55996 15.4432 6.30362 15.1308 6.15224 14.7654C6.00087 14.3999 5.96126 13.9978 6.03843 13.6098C6.1156 13.2219 6.30608 12.8655 6.58579 12.5858C6.86549 12.3061 7.22186 12.1156 7.60982 12.0384C7.99778 11.9613 8.39991 12.0009 8.76537 12.1523C9.13082 12.3036 9.44318 12.56 9.66294 12.8889C9.8827 13.2178 10 13.6044 10 14C10 14.5304 9.78929 15.0392 9.41421 15.4142C9.03914 15.7893 8.53043 16 8 16ZM24 16C23.6044 16 23.2178 15.8827 22.8889 15.6629C22.56 15.4432 22.3036 15.1308 22.1522 14.7654C22.0009 14.3999 21.9613 13.9978 22.0384 13.6098C22.1156 13.2219 22.3061 12.8655 22.5858 12.5858C22.8655 12.3061 23.2219 12.1156 23.6098 12.0384C23.9978 11.9613 24.3999 12.0009 24.7654 12.1523C25.1308 12.3036 25.4432 12.56 25.6629 12.8889C25.8827 13.2178 26 13.6044 26 14C26 14.5304 25.7893 15.0392 25.4142 15.4142C25.0391 15.7893 24.5304 16 24 16ZM30 13H27.875C27.6547 12.1396 27.1543 11.377 26.4527 10.8324C25.7511 10.2878 24.8882 9.99217 24 9.99217C23.1118 9.99217 22.2489 10.2878 21.5473 10.8324C20.8457 11.377 20.3453 12.1396 20.125 13H11.875C11.6547 12.1396 11.1543 11.377 10.4527 10.8324C9.75108 10.2878 8.88817 9.99217 8 9.99217C7.11183 9.99217 6.24892 10.2878 5.54731 10.8324C4.8457 11.377 4.3453 12.1396 4.125 13H2V8.00001H30V13Z" fill="url(#paint0_linear_251_12)"/>
<defs>
<linearGradient id="paint0_linear_251_12" x1="16" y1="-0.00785255" x2="16" y2="18.0079" gradientUnits="userSpaceOnUse">
<stop stop-color="#FFF500"/>
<stop offset="0.5" stop-color="#0D2FA9"/>
<stop offset="1" stop-color="#33FF00"/>
</linearGradient>
</defs>
</svg>
